<?xml version="1.0" encoding="utf-8"?>
<!-- Generator: Adobe Illustrator 22.0.1, SVG Export Plug-In . SVG Version: 6.00 Build 0)  -->
<svg version="1.1" id="Layer_1" xmlns="http://www.w3.org/2000/svg" xmlns:xlink="http://www.w3.org/1999/xlink" x="0px" y="0px"
	 viewBox="0 0 671 137.7" style="enable-background:new 0 0 671 137.7;" xml:space="preserve">
<style type="text/css">
	.st0{fill:#00609C;}
</style>
<g>
	<g>
		<path class="st0" d="M190.7,106.5h-23.5V35H191c13.2,0,24.7,4.3,24.7,17.8c0,9.2-4.9,14.4-12.7,16.4v0.2c8.5,1.3,15.7,7,15.7,17.2
			C218.6,101.2,207,106.5,190.7,106.5 M189.4,46.6h-8.7v17.8h8.4c8.2,0,11.7-2.9,11.7-9.2C200.7,49.3,196.9,46.6,189.4,46.6
			 M189.2,75.3h-8.6v19.6h7.9c8.7,0,13.3-2.7,13.3-9.6C201.9,78.7,198,75.3,189.2,75.3"/>
		<path class="st0" d="M257.6,66.8c-0.9-0.5-2.5-1.2-5.5-1.2c-6.3,0-10.1,5.6-11.4,7.9v32.9h-14.3V54.3h14.3v7.1
			c2.3-3.9,6.5-8.4,13.2-8.4c3.9,0,5.9,0.7,7.1,1.4L257.6,66.8z"/>
		<path class="st0" d="M286.4,107.8c-18.2,0-26.2-13.8-26.2-27.2c0-13.4,7.8-27.6,26.1-27.6c18.2,0,26.5,13.7,26.5,27.1
			C312.8,93.3,304.8,107.8,286.4,107.8 M286.1,63.6c-8,0-10.7,6.8-10.7,16.5S278.6,97,286.7,97c8.2,0,11.1-6.7,11.1-16.4
			C297.7,70.8,294.3,63.6,286.1,63.6"/>
		<path class="st0" d="M347.9,106.5c-0.4-1.3-0.8-4-0.9-5.6c-2.4,2.8-7.3,6.9-14.7,6.9c-8.9,0-15.8-5.4-15.8-14.7
			c0-13.6,14-18.6,27.9-18.6h1.8v-3c0-4.5-1.8-7.3-8.5-7.3c-6.8,0-11.4,3.5-13.3,4.9l-6.2-8.7c3.1-2.8,10-7.5,21.1-7.5
			c14.3,0,21,5.5,21,19.3V91c0,7.1,0.7,12.1,1.5,15.4H347.9z M344.9,83.3H343c-8.4,0-14.2,2.5-14.2,8.6c0,3.9,3.1,5.5,6.3,5.5
			c5.1,0,8.2-3,9.7-4.6V83.3z"/>
		<path class="st0" d="M391.2,53c6.4,0,10.2,2.3,12.1,3.6v-27h14.3v62c0,6.8,0.9,12,1.5,14.9h-14.1c-0.4-1.3-1-4.1-1.1-5.7
			c-3.2,3.8-7.7,7.1-14.7,7.1c-13.1,0-21.5-9.9-21.5-27.4C367.9,63.8,377.8,53,391.2,53 M393.6,96.4c5.2,0,8.6-3.7,9.8-5.3V67.5
			c-1.8-1.6-4.5-3.4-9.1-3.4c-7.3,0-11.3,6.1-11.3,16.4C383,90.5,386.3,96.4,393.6,96.4"/>
		<path class="st0" d="M459.6,66.8c-0.9-0.5-2.5-1.2-5.5-1.2c-6.3,0-10.1,5.6-11.4,7.9v32.9h-14.3V54.3h14.3v7.1
			c2.3-3.9,6.5-8.4,13.2-8.4c3.9,0,5.9,0.7,7.1,1.4L459.6,66.8z"/>
		<path class="st0" d="M475.7,47.5c-4.7,0-8.1-3.7-8.1-8c0-4.2,3.4-7.8,8.1-7.8c4.7,0,8.2,3.6,8.2,7.8
			C483.8,43.8,480.3,47.5,475.7,47.5"/>
		<rect x="468.5" y="54.3" class="st0" width="14.4" height="52.2"/>
		<path class="st0" d="M514.2,53c6.4,0,10.2,2.3,12.1,3.6v-27h14.3v62c0,6.8,0.9,12,1.5,14.9H528c-0.4-1.3-1-4.1-1.1-5.7
			c-3.2,3.8-7.7,7.1-14.7,7.1c-13.1,0-21.5-9.9-21.5-27.4C490.8,63.8,500.8,53,514.2,53 M516.5,96.4c5.1,0,8.6-3.7,9.8-5.3V67.5
			c-1.8-1.6-4.5-3.4-9.1-3.4c-7.3,0-11.3,6.1-11.3,16.4C505.9,90.5,509.2,96.4,516.5,96.4"/>
		<path class="st0" d="M599.4,53v10.6h-7c1.3,2.5,1.9,5.4,1.9,8.4c0,11.2-7.9,18.9-22.5,18.9c-2.3,0-4.3-0.2-6.2-0.5
			c-0.9,0.6-1.9,1.6-1.9,3.1c0,2.8,3,3.3,10.5,3.7c10.8,0.5,24.6,0.6,24.6,16.1c0,11-11.5,18.9-28.6,18.9c-14.4,0-23-4.5-23-13.9
			c0-5.8,3.5-10,8.8-12.8c-2.9-1.7-4.6-4.2-4.6-7.9c0-4.9,2.8-8,5.9-9.9c-5.9-3.3-9.3-8.8-9.3-15.7c0-11.3,8.7-19,23.2-19
			C574.6,53,599.4,53,599.4,53 M559.3,115.5c0,4.2,2.9,7.1,10.2,7.1c8.7,0,13.6-3.3,13.6-7.7c0-5.6-4.9-5.4-12.5-5.9
			c-2.5-0.2-4.8-0.4-7.1-0.7C560.8,110,559.3,112.4,559.3,115.5 M580.6,72c0-6.1-3.5-9.7-9.4-9.7c-5.9,0-9.4,3.5-9.4,9.7
			c0,6,3.5,9.7,9.4,9.7C577.1,81.6,580.6,78,580.6,72"/>
		<path class="st0" d="M630.5,97.2c7.1,0,11-2.4,13.6-3.6l4.6,9.2c-3.4,1.9-8.8,5-19.5,5c-17.5,0-27.3-11-27.3-27.7
			c0-16.5,11.4-27.2,25.8-27.2c16.3,0,24.3,11.4,22.5,30.7H617C617.7,91.7,621.8,97.2,630.5,97.2 M636.5,74
			c-0.1-5.9-2.5-10.7-9-10.7c-6,0-9.4,3.9-10.4,10.7H636.5z"/>
		<path class="st0" d="M662.4,67.8c-4,0-7.3-3.3-7.3-7.3c0-4.1,3.3-7.3,7.3-7.3c4,0,7.3,3.3,7.3,7.3
			C669.7,64.5,666.4,67.8,662.4,67.8 M662.4,54.3c-3.5,0-6.1,2.6-6.1,6.2c0,3.6,2.6,6.2,6.1,6.2c3.5,0,6.1-2.6,6.1-6.2
			C668.5,56.9,665.9,54.3,662.4,54.3 M664.4,64.8l-2-3c-0.4-0.6-0.7-0.8-1.3-0.8v3.9h-1.4V56h2.9c1.8,0,2.8,1.1,2.8,2.5
			c0,1.3-0.9,2.1-2.3,2.3c0.4,0.3,0.7,0.6,1,1.2l1.9,2.8H664.4z M662.3,57.2h-1.2v2.7h0.9c1,0,1.9-0.1,1.9-1.3
			C663.9,57.7,663.5,57.2,662.3,57.2"/>
	</g>
	<g>
		<path class="st0" d="M121.8,1.3V1.2H1.3v0.2v135.2h120.4V1.3z M95.6,93.6v5.7c-13.2,0-21.5-4.2-26.7-9.5c0.9,2.4,1.9,4.9,3.1,7.5
			c9,17.7,24.8,26.8,47.7,27.1v7.4c-32.3-0.3-47.4-17.2-54.4-31.4c-1.6-3.1-2.8-6.2-3.8-9.2c-10.7,26.2-39.9,26.6-40.2,26.6l0-8.2
			c1.5,0,35.9-1.1,35.9-40.7l8.8,0c0-39.6,34.4-39.8,35.9-39.8l0-8.2c-0.4,0-29.5,0.4-40.2,26.6c-1-3-2.2-6.1-3.8-9.2
			C50.7,24.1,35.6,7.2,3.3,6.9V3.2h116.4v65.7H65.9C65.9,69.9,66.4,93.6,95.6,93.6z M3.3,14.3c22.9,0.3,38.8,9.4,47.7,27.1
			c1.3,2.5,2.3,5,3.1,7.4c-5.2-5.3-13.5-9.5-26.7-9.5v5.8c29.2,0,29.6,22.8,29.6,23.8H3.3V14.3z"/>
	</g>
</g>
</svg>
